<svg xmlns="http://www.w3.org/2000/svg" xmlns:xlink="http://www.w3.org/1999/xlink" width="100" zoomAndPan="magnify" viewBox="0 0 75 74.999997" height="100" preserveAspectRatio="xMidYMid meet" version="1.0"><defs><clipPath id="id1"><path d="M 9.796875 0 L 65.296875 0 L 65.296875 75 L 9.796875 75 Z M 9.796875 0 " clip-rule="nonzero"/></clipPath></defs><g clip-path="url(#id1)"><path fill="#ffffff" d="M 64.820312 19.238281 L 46.046875 0.496094 C 45.742188 0.191406 45.324219 0.0195312 44.890625 0.0195312 L 15.496094 0.0195312 C 12.355469 0.0195312 9.796875 2.566406 9.796875 5.691406 L 9.796875 68.304688 C 9.796875 71.984375 12.804688 74.980469 16.511719 74.980469 L 58.582031 74.980469 C 62.289062 74.980469 65.296875 71.984375 65.296875 68.304688 L 65.296875 20.390625 C 65.296875 19.957031 65.125 19.542969 64.820312 19.238281 Z M 24.488281 57.054688 C 23.589844 57.054688 22.855469 56.324219 22.855469 55.425781 C 22.855469 54.527344 23.589844 53.796875 24.488281 53.796875 C 25.386719 53.796875 26.121094 54.527344 26.121094 55.425781 C 26.121094 56.324219 25.386719 57.054688 24.488281 57.054688 Z M 24.488281 48.90625 C 23.589844 48.90625 22.855469 48.175781 22.855469 47.277344 C 22.855469 46.378906 23.589844 45.648438 24.488281 45.648438 C 25.386719 45.648438 26.121094 46.378906 26.121094 47.277344 C 26.121094 48.175781 25.386719 48.90625 24.488281 48.90625 Z M 24.488281 40.757812 C 23.589844 40.757812 22.855469 40.027344 22.855469 39.128906 C 22.855469 38.230469 23.589844 37.5 24.488281 37.5 C 25.386719 37.5 26.121094 38.230469 26.121094 39.128906 C 26.121094 40.027344 25.386719 40.757812 24.488281 40.757812 Z M 50.605469 57.054688 L 31.015625 57.054688 L 31.015625 53.796875 L 50.605469 53.796875 Z M 50.605469 48.90625 L 31.015625 48.90625 L 31.015625 45.648438 L 50.605469 45.648438 Z M 50.605469 40.757812 L 31.015625 40.757812 L 31.015625 37.5 L 50.605469 37.5 Z M 48.429688 19.574219 C 46.925781 19.574219 45.707031 18.359375 45.707031 16.855469 L 45.707031 4.769531 L 60.539062 19.574219 Z M 48.429688 19.574219 " fill-opacity="1" fill-rule="nonzero"/></g></svg>